
<?xml version="1.0" encoding="utf-8"?>
<!DOCTYPE svg PUBLIC "-//W3C//DTD SVG 1.1//EN" "http://www.w3.org/Graphics/SVG/1.1/DTD/svg11.dtd">
<svg version="1.1" id="Ebene_1" xmlns="http://www.w3.org/2000/svg" xmlns:xlink="http://www.w3.org/1999/xlink" x="0px" y="0px"
	 width="609.007px" height="610px" viewBox="85.438 71.14 609.007 610" enable-background="new 85.438 71.14 609.007 610"
	 xml:space="preserve">
<rect id="Hintergrund" x="-4.555" y="-17.86" display="none" fill="#FFFFFF" stroke="#FFFFFF" width="699" height="699"/>
<rect id="Füllung_Server_1_" x="123.346" y="134.241" fill="#FFFFFF" stroke="#FFFFFF" width="534.099" height="482.302"/>
<path d="M529.464,376.14c0-15.411,12.492-27.903,27.902-27.903c15.412,0,27.904,12.492,27.904,27.903s-12.492,27.903-27.904,27.903
	C541.957,404.043,529.464,391.551,529.464,376.14z M482.957,404.043c15.412,0,27.904-12.492,27.904-27.903
	s-12.492-27.903-27.904-27.903c-15.41,0-27.902,12.492-27.902,27.903S467.546,404.043,482.957,404.043z M687.585,255.224
	c0,14.296-5.383,27.33-14.223,37.205c8.84,9.874,14.223,22.908,14.223,37.205v93.012c0,14.297-5.383,27.331-14.223,37.205
	c8.84,9.875,14.223,22.909,14.223,37.205v93.013c0,30.822-24.986,55.808-55.809,55.808H148.112
	c-30.822,0-55.808-24.985-55.808-55.808v-93.013c0-14.296,5.382-27.33,14.222-37.205c-8.84-9.874-14.222-22.908-14.222-37.205
	v-93.012c0-14.297,5.382-27.331,14.222-37.205c-8.84-9.875-14.222-22.909-14.222-37.205v-93.013
	c0-30.822,24.985-55.808,55.808-55.808h483.665c30.822,0,55.809,24.985,55.809,55.808V255.224z M129.509,255.224
	c0,10.257,8.346,18.603,18.603,18.603h483.665c10.258,0,18.604-8.346,18.604-18.603v-93.013c0-10.257-8.346-18.603-18.604-18.603
	H148.112c-10.257,0-18.603,8.346-18.603,18.603V255.224z M631.777,311.031H148.112c-10.257,0-18.603,8.345-18.603,18.603v93.012
	c0,10.258,8.346,18.603,18.603,18.603h483.665c10.258,0,18.604-8.345,18.604-18.603v-93.012
	C650.38,319.376,642.035,311.031,631.777,311.031z M650.38,497.056c0-10.257-8.346-18.603-18.604-18.603H148.112
	c-10.257,0-18.603,8.346-18.603,18.603v93.013c0,10.257,8.346,18.603,18.603,18.603h483.665c10.258,0,18.604-8.346,18.604-18.603
	V497.056z M557.367,236.621c15.412,0,27.904-12.493,27.904-27.904s-12.492-27.903-27.904-27.903
	c-15.41,0-27.902,12.492-27.902,27.903S541.957,236.621,557.367,236.621z M482.957,236.621c15.412,0,27.904-12.493,27.904-27.904
	s-12.492-27.903-27.904-27.903c-15.41,0-27.902,12.492-27.902,27.903S467.546,236.621,482.957,236.621z M557.367,515.658
	c-15.41,0-27.902,12.493-27.902,27.904s12.492,27.903,27.902,27.903c15.412,0,27.904-12.492,27.904-27.903
	S572.779,515.658,557.367,515.658z M482.957,515.658c-15.41,0-27.902,12.493-27.902,27.904s12.492,27.903,27.902,27.903
	c15.412,0,27.904-12.492,27.904-27.903S498.369,515.658,482.957,515.658z"/>
<g display="none">
	<path display="inline" fill="#FFFFFF" stroke="#1A171B" stroke-width="20" d="M108.409,301.698l61.339-27.777l170.64,77.354
		c16.005,7.274,34.375,7.274,50.38,0l170.651-77.354l61.328,27.798c17.473,7.918,17.473,34.312,0,42.23L376.812,455.404
		c-7.137,3.251-15.34,3.251-22.477,0L108.409,343.927C90.937,336.009,90.937,309.615,108.409,301.698z"/>
	<path display="inline" fill="#FFFFFF" stroke="#1A171B" stroke-width="20" d="M108.409,208.464l245.926,111.593
		c7.137,3.262,15.34,3.262,22.477,0l245.926-111.593c17.472-7.929,17.472-34.333,0-42.23L376.822,54.663
		c-7.137-3.262-15.34-3.262-22.477,0L108.409,166.234C90.937,174.152,90.937,200.567,108.409,208.464z M622.748,436.621
		l-61.096-27.692L390.769,486.39c-16.005,7.273-34.375,7.273-50.38,0l-170.873-77.461l-61.106,27.692
		c-17.473,7.918-17.473,34.312,0,42.23l245.926,111.476c7.137,3.252,15.34,3.252,22.477,0L622.8,478.852
		C640.22,470.933,640.22,444.539,622.748,436.621z"/>
</g>
<g id="Ebene_2">
	<path fill="#FFFFFF" stroke="#000000" stroke-width="15" d="M195.087,435.925c-51.687,1.164-93.274,58.826-93.274,129.957v24.809
		c0,25.682,15.181,46.52,33.892,46.52h248.543c18.71,0,33.892-20.838,33.892-46.52v-24.809c0-71.131-41.589-127.344-93.274-128.604
		L195.087,435.925"/>
	<path d="M331.329,442.788l-35.727,173.998L271.687,493.15l23.915-50.908h-71.753l23.919,50.908l-23.919,123.637l-35.727-173.998
		c-53.29,3.09-95.818,56.09-95.818,121.633v37.82c0,24.09,16.07,43.635,35.877,43.635h263.093c19.807,0,35.874-19.545,35.874-43.635
		v-37.82C427.148,498.878,384.621,445.878,331.329,442.788z"/>
	<path fill="#FFFFFF" stroke="#000000" stroke-width="20" d="M159.35,306.028c0,55.171,44.726,99.897,99.897,99.897
		c55.168,0,99.896-44.727,99.896-99.897c0-55.169-44.728-99.896-99.896-99.896C204.076,206.132,159.35,250.859,159.35,306.028z"/>
	<path d="M179.675,286.628c-0.351,1.192-0.528,2.413-0.528,3.642v16.5c0,14.775,14.346,26.751,32.04,26.751h10.323
		c16.767,0,30.696-10.79,31.947-24.751l0.815-9.073h9.944l0.814,9.073c1.255,13.961,15.186,24.751,31.951,24.751h10.323
		c17.694,0,32.04-11.976,32.04-26.753v-15.766c0-1.227-0.03-3.886-0.438-4.375c-0.467-0.56-2.625-0.548-2.625-0.548
		c-3.237-0.85-1.472-0.478-2.83-0.751l-1.132-0.273l-2.021-0.546l-1.618-0.479l-2.588-0.615l-2.051-0.603l-2.271-0.559l-4.716-0.97
		l-4.137-0.647l-4.519-0.473c-5.843-0.094-5.196-0.709-13.789-0.001c-9.597,0.792-14.214,1.819-25.19,6.004h-20.354
		c-11.366-4.632-22.271-6.281-31.942-6.281c-8.734,0-16.412,1.328-22.583,2.928 M281.911,297.951
		c6.306-2.019,12.813-3.035,19.449-3.035c8.11,0,15.147,1.511,20.187,3.035v8.816c0,6.463-6.389,11.721-14.24,11.721h-10.323
		c-7.415,0-13.653-4.768-14.201-10.855L281.911,297.951z M196.95,306.77v-8.816c5.04-1.524,12.078-3.037,20.178-3.037
		c6.64,0,13.15,1.017,19.455,3.035l-0.871,9.682c-0.545,6.088-6.784,10.855-14.201,10.855h-10.323
		c-7.853,0-14.24-5.254-14.24-11.719H196.95z"/>
</g>
<g id="g1911" transform="matrix(2.20098,0,0,2.20098,-303.0895,-264.0106)" display="none">
	<path id="path16" display="inline" fill="#FFFFFF" stroke="#000000" stroke-width="10" stroke-miterlimit="10" d="M440.907,260.659
		c0,1.63,0.003,2.924,0.236,4.244c-0.233,2.405-0.771,5.359-1.314,8.386c-0.776,2.793-1.88,5.455-3.199,8.016
		c-1.086,1.862-2.386,3.712-3.705,5.187c-2.096,2.25-4.287,4.334-6.769,6.198c-2.173,1.863-4.634,3.51-7.04,4.984
		c-2.56,1.707-5.606,3.181-8.554,4.345c-2.25,1.087-4.636,2.017-7.274,2.56c-2.95,0.93-6.148,1.464-9.33,1.852
		c-2.25,0.233-4.496,0.392-6.669,0.236c-0.776,0-1.158-0.4-1.313-0.943c0-0.621-0.018-0.925,0.37-1.313
		c0.544-0.777,1.095-1.468,1.482-2.088l12.26-14.651l-45.232,3.705c-3.569,0.388-7.074,0.405-10.643-0.37
		c-2.949-0.389-5.728-1.106-8.52-2.426c-3.182-1.473-6.906-3.324-10.474-5.186l-13.912,37.385
		c-4.268,1.164-8.766,2.419-13.033,3.739c0.93-0.388-3.71,1.323-8.522,3.03c-5.044,1.863-8.451,3.322-11.789,4.951
		c-6.519,3.182-12.821,6.765-19.029,10.879c-3.104,2.018-6.511,4.421-10.003,6.904c-2.095,1.63-4.33,3.496-6.735,5.591l-6.94,6.667
		c-3.492,3.338-6.825,7.283-9.463,11.317c1.319,0.388,2.665,0.79,3.906,1.179c0.389,0.155,0.929,0.384,1.55,0.539
		c3.104,0.931,5.349,1.48,7.444,2.257c1.474,0.543,2.937,1.072,4.411,1.616c3.414,1.552,6.754,2.793,9.935,4.346
		c1.243,0.543,2.555,1.11,3.874,1.886c0.544,0.311,1.343,0.69,1.886,1.077c0,0.233,0.134,0.215,0.134,0.371
		c0,0,0.237,0.171,0.237,0.404c0.154,0.155,0.169,0.37,0.169,0.37c0,0.543-0.398,0.957-0.709,1.111
		c-2.25,0.543-4.653,0.922-6.904,1.077c-3.57,0.622-6.902,1.313-10.239,2.088c-3.414,0.698-6.754,1.878-9.935,2.964
		c-2.173,0.543-4.665,1.446-6.837,2.223c-2.095,0.776-4.1,1.477-5.963,2.02c-0.542,0.233-0.943,0.387-0.943,0.776
		c0,0.387,0.385,0.539,0.54,0.539c0.155,0,0.168,0,0.168,0l49.981,3.57c0.544,0,1.073,0.169,1.617,0.169
		c0.93,0,1.863-0.169,2.794-0.169c3.182-0.388,6.2-1.15,8.993-2.392c3.725-1.707,6.919-3.94,9.868-6.5
		c2.64-2.639,5.022-5.303,7.04-8.251c1.863-2.794,3.191-5.822,4.277-8.926c1.164-2.793,1.868-5.966,2.257-8.993
		c0.387-2.405,0.539-4.959,0.539-7.443c12.416-1.086,24.538-2.57,36.643-4.277c18.314-3.182,36.366-9.455,53.282-18.456
		c4.656-2.406,9.342-4.806,13.843-7.444c2.948-1.63,6.281-3.724,9.463-6.129c2.793-2.25,5.408-4.439,7.814-6.534
		c2.639-2.405,5.196-5.192,7.679-8.217c4.423-5.354,7.615-11.719,9.633-18.626c0.776-3.103,1.308-6.295,1.852-9.632
		c0-1.165,0.236-2.252,0.236-3.57c0-1.474-0.215-3.174-0.37-4.649c-0.543-3.026-1.338-5.828-2.424-8.622
		C442.758,263.981,441.838,262.289,440.907,260.659z M255.667,354.998c3.491,0,6.366,2.964,6.366,6.533
		c0,3.648-2.874,6.534-6.366,6.534c-3.493,0-6.366-2.887-6.366-6.534C249.301,357.962,252.174,354.998,255.667,354.998z"/>
	<path id="path20" display="inline" fill="#FFFFFF" stroke="#000000" stroke-width="10" stroke-miterlimit="10" d="M396.976,382.59
		c-18.701,11.019-39.343,18.314-60.993,21.495l-15.053,1.241l-15.365,0.932l-16.218-0.156c4.268-2.637,8.148-5.742,11.562-9.312
		l3.337-3.88c2.795-3.569,5.045-7.294,6.519-11.407c0.699-2.639,1.319-5.043,1.863-7.605l0.932-5.975l16.14-1.707l12.648-1.63
		l8.536-1.319c4.889-0.931,9.7-2.25,14.589-3.725l15.597-5.587l12.105-5.432l12.339-6.13l11.562-6.363l9.08-6.13l11.562-10.787
		l8.614-11.796l-0.543,4.5c-2.25,14.511-7.682,28.48-15.675,40.973c-5.432,8.613-12.338,15.83-20.331,21.417l-4.268,3.026
		L396.976,382.59z"/>
	<path id="path22" display="inline" fill="#FFFFFF" stroke="#000000" stroke-width="10" stroke-miterlimit="10" d="M422.525,242.59
		c-3.57-2.56-7.294-4.81-11.407-6.673l-66.891-27.78l-1.086-0.543c-0.233,0-0.387-0.155-0.62-0.155
		c-0.156,0-0.544,0.155-0.699,0.388c-0.387,0.31-0.387,0.698-0.387,1.086c0,0.387,0,0.776,0.387,0.93l18.624,24.212l4.113,5.587
		c0.931,1.862,1.319,3.725,1.475,5.587c0,0.232,0,0.388,0,0.543c0,1.707-0.389,3.57-0.932,5.277l-2.018,4.268l-1.862,2.793
		c4.035-0.777,7.76-1.475,11.717-2.096c5.045-0.931,10.398-1.629,15.986-1.863c4.655-0.155,9.001-0.31,13.424-0.31
		c3.337,0.155,7.062,0.31,10.787,0.698c2.484,0.388,4.657,0.777,6.907,1.32c1.707,0.543,3.414,1.473,4.889,2.405
		c2.405,1.707,4.267,3.957,5.353,6.518c0.932,2.096,1.552,4.5,1.708,6.751c0.776-2.095,1.087-4.112,1.087-6.363
		c0-0.388,0-0.543,0-0.931c-0.156-2.794-0.544-5.432-1.243-8.226c-1.164-2.949-2.638-5.743-4.346-8.148
		c-1.474-1.862-3.103-3.569-4.81-5.044C422.681,242.59,422.525,242.59,422.525,242.59z"/>
	<path id="path24" display="inline" fill="#FFFFFF" stroke="#000000" stroke-width="10" stroke-miterlimit="10" d="M378.839,400.569
		c3.492-1.474,6.829-3.104,10.011-4.967c0.387,0.156,0.93,0.156,1.319,0.156c2.25,0,4.5-0.156,6.673-0.543
		c6.518-0.543,13.037-1.474,19.4-2.639c-6.907,4.656-13.425,9.7-19.4,15.132c-5.199,4.423-9.855,9.312-14.511,14.045
		c-1.32,0-2.406-0.387-3.337-0.698c-4.113-1.862-7.838-3.88-11.563-6.13c-3.569-2.018-6.673-4.423-9.312-7.217
		c2.018-0.776,4.113-1.474,6.131-2.095C369.295,404.371,374.106,402.663,378.839,400.569z"/>
</g>
</svg>
